<svg t="1593143122524" class="icon" viewBox="0 0 1024 1024" version="1.1" xmlns="http://www.w3.org/2000/svg" p-id="3099" width="200" height="200"><path d="M445.269333 563.306667c-111.744 0-202.666667-90.922667-202.666666-202.666667s90.922667-202.666667 202.666666-202.666667 202.666667 90.922667 202.666667 202.666667-90.922667 202.666667-202.666667 202.666667z m0-362.666667c-88.234667 0-160 71.765333-160 160s71.765333 160 160 160 160-71.765333 160-160-71.765333-160-160-160z" fill="#666767" p-id="3100"></path><path d="M80.192 902.869333a21.333333 21.333333 0 0 1-20.224-28.096 405.589333 405.589333 0 0 1 385.301333-277.589333 406.954667 406.954667 0 0 1 356.522667 211.456l104.576-452.8a21.333333 21.333333 0 0 1 41.578667 9.6l-118.912 514.773333a21.333333 21.333333 0 0 1-40.917334 2.282667 364.010667 364.010667 0 0 0-342.869333-242.624A362.965333 362.965333 0 0 0 100.416 888.298667a21.290667 21.290667 0 0 1-20.224 14.570666zM926.08 163.754667H629.781333a21.333333 21.333333 0 1 1 0-42.666667H926.08a21.333333 21.333333 0 1 1 0 42.666667zM819.413333 265.984h-61.632a21.333333 21.333333 0 1 1 0-42.666667h61.632a21.333333 21.333333 0 1 1 0 42.666667z" fill="#666767" p-id="3101"></path><path d="M911.808 244.650667m-32 0a32 32 0 1 0 64 0 32 32 0 1 0-64 0Z" fill="#666767" p-id="3102"></path></svg>